<mxfile host="app.diagrams.net" modified="2023-07-06T13:06:06.506Z" agent="Mozilla/5.0 (Windows NT 10.0; Win64; x64) AppleWebKit/537.36 (KHTML, like Gecko) Chrome/114.0.0.0 Safari/537.36" etag="12Eiezc_52AiXDz_74yh" version="21.5.2" type="google">
  <diagram name="ページ1" id="7OOp9_Ev_NuB0V9YdiFM">
    <mxGraphModel grid="1" page="1" gridSize="10" guides="1" tooltips="1" connect="1" arrows="1" fold="1" pageScale="1" pageWidth="827" pageHeight="1169" math="0" shadow="0">
      <root>
        <mxCell id="0" />
        <mxCell id="1" parent="0" />
        <mxCell id="eunxYqIY-hkd2ZFFvHBH-7" value="ログイン" style="edgeStyle=orthogonalEdgeStyle;rounded=0;orthogonalLoop=1;jettySize=auto;html=1;exitX=0.5;exitY=1;exitDx=0;exitDy=0;entryX=0.5;entryY=0;entryDx=0;entryDy=0;" edge="1" parent="1" source="eunxYqIY-hkd2ZFFvHBH-1" target="eunxYqIY-hkd2ZFFvHBH-2">
          <mxGeometry relative="1" as="geometry" />
        </mxCell>
        <mxCell id="eunxYqIY-hkd2ZFFvHBH-8" value="ユーザー登録" style="edgeStyle=orthogonalEdgeStyle;rounded=0;orthogonalLoop=1;jettySize=auto;html=1;exitX=1;exitY=0.5;exitDx=0;exitDy=0;entryX=0;entryY=0.5;entryDx=0;entryDy=0;" edge="1" parent="1" source="eunxYqIY-hkd2ZFFvHBH-1" target="eunxYqIY-hkd2ZFFvHBH-4">
          <mxGeometry relative="1" as="geometry" />
        </mxCell>
        <mxCell id="eunxYqIY-hkd2ZFFvHBH-1" value="トップ" style="whiteSpace=wrap;html=1;" vertex="1" parent="1">
          <mxGeometry x="40" y="40" width="120" height="60" as="geometry" />
        </mxCell>
        <mxCell id="eunxYqIY-hkd2ZFFvHBH-17" value="ログイン" style="edgeStyle=orthogonalEdgeStyle;rounded=0;orthogonalLoop=1;jettySize=auto;html=1;exitX=0.5;exitY=1;exitDx=0;exitDy=0;" edge="1" parent="1" source="eunxYqIY-hkd2ZFFvHBH-2" target="eunxYqIY-hkd2ZFFvHBH-12">
          <mxGeometry relative="1" as="geometry" />
        </mxCell>
        <mxCell id="eunxYqIY-hkd2ZFFvHBH-2" value="ログイン" style="whiteSpace=wrap;html=1;" vertex="1" parent="1">
          <mxGeometry x="40" y="160" width="120" height="60" as="geometry" />
        </mxCell>
        <mxCell id="eunxYqIY-hkd2ZFFvHBH-14" value="登録する" style="edgeStyle=orthogonalEdgeStyle;rounded=0;orthogonalLoop=1;jettySize=auto;html=1;exitX=1;exitY=0.5;exitDx=0;exitDy=0;entryX=0;entryY=0.5;entryDx=0;entryDy=0;" edge="1" parent="1" source="eunxYqIY-hkd2ZFFvHBH-4" target="eunxYqIY-hkd2ZFFvHBH-5">
          <mxGeometry relative="1" as="geometry" />
        </mxCell>
        <mxCell id="eunxYqIY-hkd2ZFFvHBH-4" value="ユーザー登録&lt;br&gt;入力" style="whiteSpace=wrap;html=1;" vertex="1" parent="1">
          <mxGeometry x="240" y="40" width="120" height="60" as="geometry" />
        </mxCell>
        <mxCell id="eunxYqIY-hkd2ZFFvHBH-15" value="登録する" style="edgeStyle=orthogonalEdgeStyle;rounded=0;orthogonalLoop=1;jettySize=auto;html=1;exitX=1;exitY=0.5;exitDx=0;exitDy=0;entryX=0;entryY=0.5;entryDx=0;entryDy=0;" edge="1" parent="1" source="eunxYqIY-hkd2ZFFvHBH-5" target="eunxYqIY-hkd2ZFFvHBH-6">
          <mxGeometry relative="1" as="geometry" />
        </mxCell>
        <mxCell id="eunxYqIY-hkd2ZFFvHBH-28" value="戻る" style="edgeStyle=orthogonalEdgeStyle;rounded=0;orthogonalLoop=1;jettySize=auto;html=1;exitX=0.5;exitY=0;exitDx=0;exitDy=0;entryX=0.5;entryY=0;entryDx=0;entryDy=0;" edge="1" parent="1" source="eunxYqIY-hkd2ZFFvHBH-5" target="eunxYqIY-hkd2ZFFvHBH-4">
          <mxGeometry relative="1" as="geometry" />
        </mxCell>
        <mxCell id="eunxYqIY-hkd2ZFFvHBH-5" value="ユーザー登録&lt;br&gt;確認" style="whiteSpace=wrap;html=1;" vertex="1" parent="1">
          <mxGeometry x="440" y="40" width="120" height="60" as="geometry" />
        </mxCell>
        <mxCell id="eunxYqIY-hkd2ZFFvHBH-16" value="ログイン画面へ" style="edgeStyle=orthogonalEdgeStyle;rounded=0;orthogonalLoop=1;jettySize=auto;html=1;exitX=0.5;exitY=1;exitDx=0;exitDy=0;entryX=1;entryY=0.5;entryDx=0;entryDy=0;" edge="1" parent="1" source="eunxYqIY-hkd2ZFFvHBH-6" target="eunxYqIY-hkd2ZFFvHBH-2">
          <mxGeometry relative="1" as="geometry" />
        </mxCell>
        <mxCell id="eunxYqIY-hkd2ZFFvHBH-6" value="ユーザー登録&lt;br&gt;完了" style="whiteSpace=wrap;html=1;" vertex="1" parent="1">
          <mxGeometry x="640" y="40" width="120" height="60" as="geometry" />
        </mxCell>
        <mxCell id="eunxYqIY-hkd2ZFFvHBH-19" value="投稿一覧" style="edgeStyle=orthogonalEdgeStyle;rounded=0;orthogonalLoop=1;jettySize=auto;html=1;exitX=0.5;exitY=1;exitDx=0;exitDy=0;entryX=0;entryY=0.5;entryDx=0;entryDy=0;" edge="1" parent="1" source="eunxYqIY-hkd2ZFFvHBH-12" target="eunxYqIY-hkd2ZFFvHBH-13">
          <mxGeometry x="0.3043" relative="1" as="geometry">
            <mxPoint as="offset" />
          </mxGeometry>
        </mxCell>
        <mxCell id="eunxYqIY-hkd2ZFFvHBH-12" value="メニュー" style="whiteSpace=wrap;html=1;" vertex="1" parent="1">
          <mxGeometry x="40" y="280" width="120" height="60" as="geometry" />
        </mxCell>
        <mxCell id="eunxYqIY-hkd2ZFFvHBH-24" value="新規投稿" style="edgeStyle=orthogonalEdgeStyle;rounded=0;orthogonalLoop=1;jettySize=auto;html=1;exitX=1;exitY=0.5;exitDx=0;exitDy=0;entryX=0;entryY=0.5;entryDx=0;entryDy=0;" edge="1" parent="1" source="eunxYqIY-hkd2ZFFvHBH-13" target="eunxYqIY-hkd2ZFFvHBH-23">
          <mxGeometry relative="1" as="geometry" />
        </mxCell>
        <mxCell id="eunxYqIY-hkd2ZFFvHBH-26" style="edgeStyle=orthogonalEdgeStyle;rounded=0;orthogonalLoop=1;jettySize=auto;html=1;exitX=0.5;exitY=1;exitDx=0;exitDy=0;entryX=0.5;entryY=0;entryDx=0;entryDy=0;" edge="1" parent="1" source="eunxYqIY-hkd2ZFFvHBH-13" target="eunxYqIY-hkd2ZFFvHBH-22">
          <mxGeometry relative="1" as="geometry" />
        </mxCell>
        <mxCell id="eunxYqIY-hkd2ZFFvHBH-13" value="投稿一覧" style="whiteSpace=wrap;html=1;" vertex="1" parent="1">
          <mxGeometry x="240" y="400" width="120" height="60" as="geometry" />
        </mxCell>
        <mxCell id="eunxYqIY-hkd2ZFFvHBH-22" value="投稿ページ" style="whiteSpace=wrap;html=1;" vertex="1" parent="1">
          <mxGeometry x="240" y="520" width="120" height="60" as="geometry" />
        </mxCell>
        <mxCell id="eunxYqIY-hkd2ZFFvHBH-30" value="投稿する" style="edgeStyle=orthogonalEdgeStyle;rounded=0;orthogonalLoop=1;jettySize=auto;html=1;exitX=1;exitY=0.5;exitDx=0;exitDy=0;entryX=0;entryY=0.5;entryDx=0;entryDy=0;" edge="1" parent="1" source="eunxYqIY-hkd2ZFFvHBH-23" target="eunxYqIY-hkd2ZFFvHBH-29">
          <mxGeometry relative="1" as="geometry" />
        </mxCell>
        <mxCell id="eunxYqIY-hkd2ZFFvHBH-23" value="新規投稿" style="whiteSpace=wrap;html=1;" vertex="1" parent="1">
          <mxGeometry x="440" y="400" width="120" height="60" as="geometry" />
        </mxCell>
        <mxCell id="eunxYqIY-hkd2ZFFvHBH-31" value="投稿する" style="edgeStyle=orthogonalEdgeStyle;rounded=0;orthogonalLoop=1;jettySize=auto;html=1;exitX=0.5;exitY=1;exitDx=0;exitDy=0;entryX=1;entryY=0.5;entryDx=0;entryDy=0;" edge="1" parent="1" source="eunxYqIY-hkd2ZFFvHBH-29" target="eunxYqIY-hkd2ZFFvHBH-22">
          <mxGeometry relative="1" as="geometry" />
        </mxCell>
        <mxCell id="eunxYqIY-hkd2ZFFvHBH-35" value="戻る" style="edgeStyle=orthogonalEdgeStyle;rounded=0;orthogonalLoop=1;jettySize=auto;html=1;exitX=0.5;exitY=0;exitDx=0;exitDy=0;entryX=0.5;entryY=0;entryDx=0;entryDy=0;" edge="1" parent="1" source="eunxYqIY-hkd2ZFFvHBH-29" target="eunxYqIY-hkd2ZFFvHBH-23">
          <mxGeometry relative="1" as="geometry" />
        </mxCell>
        <mxCell id="eunxYqIY-hkd2ZFFvHBH-29" value="投稿確認" style="whiteSpace=wrap;html=1;" vertex="1" parent="1">
          <mxGeometry x="640" y="400" width="120" height="60" as="geometry" />
        </mxCell>
        <mxCell id="eunxYqIY-hkd2ZFFvHBH-34" value="コメント" style="edgeStyle=orthogonalEdgeStyle;rounded=0;orthogonalLoop=1;jettySize=auto;html=1;exitX=0.5;exitY=1;exitDx=0;exitDy=0;entryX=0;entryY=0.5;entryDx=0;entryDy=0;" edge="1" parent="1" source="eunxYqIY-hkd2ZFFvHBH-22" target="eunxYqIY-hkd2ZFFvHBH-22">
          <mxGeometry relative="1" as="geometry">
            <Array as="points">
              <mxPoint x="300" y="600" />
              <mxPoint x="200" y="600" />
              <mxPoint x="200" y="550" />
            </Array>
          </mxGeometry>
        </mxCell>
      </root>
    </mxGraphModel>
  </diagram>
</mxfile>
